BoPoMoFont_Thin.ufo
<glyph name="exclam" format="2">
  <advance width="282"/>
  <unicode hex="0021"/>
  <outline>
    <contour>
      <point x="83" y="208" type="line"/>
      <point x="199" y="208" type="line"/>
      <point x="199" y="728" type="line"/>
      <point x="83" y="728" type="line"/>
    </contour>
    <contour>
      <point x="141" y="-10" type="curve" smooth="yes"/>
      <point x="179" y="-10"/>
      <point x="210" y="21"/>
      <point x="210" y="59" type="curve" smooth="yes"/>
      <point x="210" y="97"/>
      <point x="179" y="128"/>
      <point x="141" y="128" type="curve" smooth="yes"/>
      <point x="103" y="128"/>
      <point x="72" y="97"/>
      <point x="72" y="59" type="curve" smooth="yes"/>
      <point x="72" y="21"/>
      <point x="103" y="-10"/>
    </contour>
  </outline>
</glyph>
<glyph name="comma" format="2">
  <advance width="285"/>
  <unicode hex="002C"/>
  <outline>
    <contour>
      <point x="77" y="-66"/>
      <point x="115" y="-23"/>
      <point x="115" y="3" type="qcurve"/>
      <point x="115" y="129" type="line"/>
      <point x="220" y="129" type="line"/>
      <point x="220" y="-8" type="line"/>
      <point x="220" y="-75"/>
      <point x="150" y="-148"/>
      <point x="86" y="-148" type="qcurve"/>
      <point x="35" y="-148" type="line"/>
      <point x="35" y="-66" type="line"/>
      <point x="55" y="-66" type="line"/>
    </contour>
  </outline>
</glyph>
<glyph name="hyphen" format="2">
  <advance width="472"/>
  <unicode hex="002D"/>
  <unicode hex="00AD"/>
  <outline>
    <contour>
      <point x="80" y="208" type="line"/>
      <point x="392" y="208" type="line"/>
      <point x="392" y="312" type="line"/>
      <point x="80" y="312" type="line"/>
    </contour>
  </outline>
</glyph>
<glyph name="three" format="2">
  <advance width="560"/>
  <unicode hex="0033"/>
  <outline>
    <contour>
      <point x="285" y="-10" type="curve" smooth="yes"/>
      <point x="417" y="-10"/>
      <point x="517" y="68"/>
      <point x="517" y="181" type="curve" smooth="yes"/>
      <point x="517" y="291"/>
      <point x="444" y="340"/>
      <point x="392" y="354" type="curve"/>
      <point x="392" y="356" type="line"/>
      <point x="430" y="370"/>
      <point x="491" y="418"/>
      <point x="491" y="510" type="curve" smooth="yes"/>
      <point x="491" y="623"/>
      <point x="405" y="691"/>
      <point x="283" y="691" type="curve" smooth="yes"/>
      <point x="120" y="691"/>
      <point x="62" y="571"/>
      <point x="59" y="491" type="curve"/>
      <point x="168" y="491" type="line"/>
      <point x="175" y="544"/>
      <point x="206" y="594"/>
      <point x="282" y="594" type="curve" smooth="yes"/>
      <point x="338" y="594"/>
      <point x="384" y="559"/>
      <point x="384" y="496" type="curve" smooth="yes"/>
      <point x="384" y="430"/>
      <point x="332" y="399"/>
      <point x="259" y="399" type="curve" smooth="yes"/>
      <point x="219" y="399" type="line"/>
      <point x="219" y="304" type="line"/>
      <point x="271" y="304" type="line" smooth="yes"/>
      <point x="344" y="304"/>
      <point x="410" y="269"/>
      <point x="410" y="194" type="curve" smooth="yes"/>
      <point x="410" y="127"/>
      <point x="357" y="86"/>
      <point x="285" y="86" type="curve" smooth="yes"/>
      <point x="217" y="86"/>
      <point x="164" y="126"/>
      <point x="152" y="194" type="curve"/>
      <point x="38" y="194" type="line"/>
      <point x="45" y="84"/>
      <point x="132" y="-10"/>
    </contour>
  </outline>
</glyph>
<glyph name="six" format="2">
  <advance width="542"/>
  <unicode hex="0036"/>
  <outline>
    <contour>
      <point x="284" y="-10" type="curve" smooth="yes"/>
      <point x="414" y="-10"/>
      <point x="513" y="87"/>
      <point x="513" y="215" type="curve" smooth="yes"/>
      <point x="513" y="345"/>
      <point x="414" y="432"/>
      <point x="309" y="432" type="curve" smooth="yes"/>
      <point x="277" y="432"/>
      <point x="252" y="425"/>
      <point x="231" y="413" type="curve"/>
      <point x="229" y="415" type="line"/>
      <point x="390" y="681" type="line"/>
      <point x="270" y="681" type="line"/>
      <point x="120" y="406" type="line" smooth="yes"/>
      <point x="70" y="316"/>
      <point x="55" y="266"/>
      <point x="55" y="214" type="curve" smooth="yes"/>
      <point x="55" y="87"/>
      <point x="154" y="-10"/>
    </contour>
    <contour>
      <point x="284" y="86" type="curve" smooth="yes"/>
      <point x="213" y="86"/>
      <point x="161" y="140"/>
      <point x="161" y="214" type="curve" smooth="yes"/>
      <point x="161" y="287"/>
      <point x="213" y="342"/>
      <point x="284" y="342" type="curve" smooth="yes"/>
      <point x="354" y="342"/>
      <point x="407" y="287"/>
      <point x="407" y="214" type="curve" smooth="yes"/>
      <point x="407" y="140"/>
      <point x="354" y="86"/>
    </contour>
  </outline>
</glyph>
<glyph name="A" format="2">
  <advance width="1406"/>
  <unicode hex="0041"/>
  <outline>
    <contour>
      <point x="738" y="648" type="line"/>
      <point x="669" y="648" type="line"/>
      <point x="397" y="0" type="line"/>
      <point x="455" y="0" type="line"/>
      <point x="534" y="190" type="line"/>
      <point x="871" y="190" type="line"/>
      <point x="949" y="0" type="line"/>
      <point x="1010" y="0" type="line"/>
    </contour>
    <contour>
      <point x="702" y="593" type="line"/>
      <point x="848" y="243" type="line"/>
      <point x="557" y="243" type="line"/>
    </contour>
  </outline>
</glyph>
<glyph name="B" format="2">
  <advance width="1399"/>
  <unicode hex="0042"/>
  <outline>
    <contour>
      <point x="496" y="648" type="line"/>
      <point x="496" y="0" type="line"/>
      <point x="757" y="0" type="line" smooth="yes"/>
      <point x="897" y="0"/>
      <point x="988" y="54"/>
      <point x="988" y="177" type="curve" smooth="yes"/>
      <point x="988" y="264"/>
      <point x="937" y="315"/>
      <point x="863" y="334" type="curve"/>
      <point x="931" y="352"/>
      <point x="975" y="401"/>
      <point x="975" y="480" type="curve" smooth="yes"/>
      <point x="975" y="600"/>
      <point x="881" y="648"/>
      <point x="746" y="648" type="curve" smooth="yes"/>
    </contour>
    <contour>
      <point x="754" y="303" type="line" smooth="yes"/>
      <point x="859" y="303"/>
      <point x="929" y="273"/>
      <point x="929" y="179" type="curve" smooth="yes"/>
      <point x="929" y="85"/>
      <point x="859" y="54"/>
      <point x="754" y="54" type="curve" smooth="yes"/>
      <point x="552" y="54" type="line"/>
      <point x="552" y="303" type="line"/>
    </contour>
    <contour>
      <point x="744" y="595" type="line" smooth="yes"/>
      <point x="843" y="595"/>
      <point x="916" y="567"/>
      <point x="916" y="475" type="curve" smooth="yes"/>
      <point x="916" y="384"/>
      <point x="844" y="356"/>
      <point x="745" y="356" type="curve" smooth="yes"/>
      <point x="552" y="356" type="line"/>
      <point x="552" y="595" type="line"/>
    </contour>
  </outline>
</glyph>
<glyph name="C" format="2">
  <advance width="1528"/>
  <unicode hex="0043"/>
  <outline>
    <contour>
      <point x="803" y="646" type="curve" smooth="yes"/>
      <point x="614" y="646"/>
      <point x="471" y="509"/>
      <point x="471" y="315" type="curve" smooth="yes"/>
      <point x="471" y="121"/>
      <point x="614" y="-16"/>
      <point x="803" y="-16" type="curve" smooth="yes"/>
      <point x="913" y="-16"/>
      <point x="1009" y="34"/>
      <point x="1063" y="115" type="curve"/>
      <point x="1017" y="149" type="line"/>
      <point x="972" y="80"/>
      <point x="893" y="39"/>
      <point x="803" y="39" type="curve" smooth="yes"/>
      <point x="650" y="39"/>
      <point x="530" y="151"/>
      <point x="530" y="315" type="curve" smooth="yes"/>
      <point x="530" y="481"/>
      <point x="650" y="592"/>
      <point x="803" y="592" type="curve" smooth="yes"/>
      <point x="894" y="592"/>
      <point x="972" y="550"/>
      <point x="1018" y="482" type="curve"/>
      <point x="1065" y="513" type="line"/>
      <point x="1013" y="595"/>
      <point x="914" y="646"/>
    </contour>
  </outline>
</glyph>
<glyph name="D" format="2">
  <advance width="698"/>
  <unicode hex="0044"/>
  <outline>
    <contour>
      <point x="52" y="648" type="line"/>
      <point x="52" y="0" type="line"/>
      <point x="289" y="0" type="line" smooth="yes"/>
      <point x="504" y="0"/>
      <point x="638" y="125"/>
      <point x="638" y="324" type="curve" smooth="yes"/>
      <point x="638" y="523"/>
      <point x="504" y="648"/>
      <point x="289" y="648" type="curve" smooth="yes"/>
    </contour>
    <contour>
      <point x="289" y="594" type="line" smooth="yes"/>
      <point x="476" y="594"/>
      <point x="579" y="488"/>
      <point x="579" y="324" type="curve" smooth="yes"/>
      <point x="579" y="160"/>
      <point x="476" y="54"/>
      <point x="289" y="54" type="curve" smooth="yes"/>
      <point x="108" y="54" type="line"/>
      <point x="108" y="594" type="line"/>
    </contour>
  </outline>
</glyph>
<glyph name="E" format="2">
  <advance width="567"/>
  <unicode hex="0045"/>
  <outline>
    <contour>
      <point x="498" y="54" type="line"/>
      <point x="109" y="54" type="line"/>
      <point x="109" y="300" type="line"/>
      <point x="484" y="300" type="line"/>
      <point x="484" y="352" type="line"/>
      <point x="109" y="352" type="line"/>
      <point x="109" y="595" type="line"/>
      <point x="495" y="595" type="line"/>
      <point x="495" y="648" type="line"/>
      <point x="52" y="648" type="line"/>
      <point x="52" y="0" type="line"/>
      <point x="498" y="0" type="line"/>
    </contour>
  </outline>
</glyph>
<glyph name="F" format="2">
  <advance width="1287"/>
  <unicode hex="0046"/>
  <outline>
    <contour>
      <point x="890" y="353" type="line"/>
      <point x="521" y="353" type="line"/>
      <point x="521" y="594" type="line"/>
      <point x="905" y="594" type="line"/>
      <point x="905" y="648" type="line"/>
      <point x="465" y="648" type="line"/>
      <point x="465" y="0" type="line"/>
      <point x="521" y="0" type="line"/>
      <point x="521" y="300" type="line"/>
      <point x="890" y="300" type="line"/>
    </contour>
  </outline>
</glyph>
<glyph name="G" format="2">
  <advance width="801"/>
  <unicode hex="0047"/>
  <outline>
    <contour>
      <point x="390" y="653" type="line"/>
      <point x="200" y="653"/>
      <point x="55" y="515"/>
      <point x="55" y="320" type="curve" smooth="yes"/>
      <point x="55" y="111"/>
      <point x="213" y="-15"/>
      <point x="387" y="-15" type="curve" smooth="yes"/>
      <point x="581" y="-15"/>
      <point x="682" y="104"/>
      <point x="682" y="295" type="curve"/>
      <point x="692" y="318" type="line"/>
      <point x="407" y="318" type="line"/>
      <point x="407" y="265" type="line"/>
      <point x="629" y="265" type="line"/>
      <point x="620" y="115"/>
      <point x="537" y="40"/>
      <point x="387" y="40" type="curve" smooth="yes"/>
      <point x="235" y="40"/>
      <point x="114" y="152"/>
      <point x="114" y="320" type="curve" smooth="yes"/>
      <point x="114" y="485"/>
      <point x="235" y="598"/>
      <point x="390" y="598" type="curve"/>
      <point x="541" y="598" type="line"/>
      <point x="541" y="653" type="line"/>
    </contour>
    <contour>
      <point x="635" y="317" type="line"/>
      <point x="639" y="132" type="line"/>
      <point x="639" y="112" type="line" smooth="yes"/>
      <point x="639" y="56"/>
      <point x="688" y="-1"/>
      <point x="733" y="-1" type="curve" smooth="yes"/>
      <point x="746" y="-1" type="line"/>
      <point x="746" y="51" type="line"/>
      <point x="742" y="51" type="line" smooth="yes"/>
      <point x="712" y="51"/>
      <point x="692" y="72"/>
      <point x="692" y="99" type="curve" smooth="yes"/>
      <point x="692" y="317" type="line"/>
    </contour>
  </outline>
</glyph>
<glyph name="H" format="2">
  <advance width="774"/>
  <unicode hex="0048"/>
  <outline>
    <contour>
      <point x="118" y="0" type="line"/>
      <point x="130" y="0" type="line"/>
      <point x="130" y="363" type="line"/>
      <point x="644" y="363" type="line"/>
      <point x="644" y="0" type="line"/>
      <point x="656" y="0" type="line"/>
      <point x="656" y="728" type="line"/>
      <point x="644" y="728" type="line"/>
      <point x="644" y="375" type="line"/>
      <point x="130" y="375" type="line"/>
      <point x="130" y="728" type="line"/>
      <point x="118" y="728" type="line"/>
    </contour>
  </outline>
</glyph>
<glyph name="I" format="2">
  <advance width="163"/>
  <unicode hex="0049"/>
  <outline>
    <contour>
      <point x="110" y="648" type="line"/>
      <point x="53" y="648" type="line"/>
      <point x="53" y="0" type="line"/>
      <point x="110" y="0" type="line"/>
    </contour>
  </outline>
</glyph>
<glyph name="J" format="2">
  <advance width="502"/>
  <unicode hex="004A"/>
  <outline>
    <contour>
      <point x="452" y="653" type="line"/>
      <point x="391" y="653" type="line"/>
      <point x="391" y="249" type="line" smooth="yes"/>
      <point x="391" y="115"/>
      <point x="336" y="44"/>
      <point x="229" y="44" type="curve" smooth="yes"/>
      <point x="168" y="44"/>
      <point x="92" y="96"/>
      <point x="92" y="181" type="curve"/>
      <point x="31" y="181" type="line"/>
      <point x="31" y="50"/>
      <point x="140" y="-15"/>
      <point x="230" y="-15" type="curve" smooth="yes"/>
      <point x="368" y="-15"/>
      <point x="452" y="77"/>
      <point x="452" y="244" type="curve" smooth="yes"/>
    </contour>
  </outline>
</glyph>
<glyph name="K" format="2">
  <advance width="584"/>
  <unicode hex="004B"/>
  <outline>
    <contour>
      <point x="495" y="0" type="line"/>
      <point x="572" y="0" type="line"/>
      <point x="241" y="329" type="line"/>
      <point x="553" y="648" type="line"/>
      <point x="479" y="648" type="line"/>
      <point x="195" y="352" type="line"/>
      <point x="109" y="352" type="line"/>
      <point x="109" y="648" type="line"/>
      <point x="52" y="648" type="line"/>
      <point x="52" y="0" type="line"/>
      <point x="109" y="0" type="line"/>
      <point x="109" y="299" type="line"/>
      <point x="195" y="299" type="line"/>
    </contour>
  </outline>
</glyph>
<glyph name="L" format="2">
  <advance width="518"/>
  <unicode hex="004C"/>
  <outline>
    <contour>
      <point x="479" y="54" type="line"/>
      <point x="95" y="54" type="line"/>
      <point x="95" y="648" type="line"/>
      <point x="39" y="648" type="line"/>
      <point x="39" y="0" type="line"/>
      <point x="479" y="0" type="line"/>
    </contour>
  </outline>
</glyph>
<glyph name="M" format="2">
  <advance width="744"/>
  <unicode hex="004D"/>
  <outline>
    <contour>
      <point x="705" y="648" type="line"/>
      <point x="620" y="648" type="line"/>
      <point x="372" y="143" type="line"/>
      <point x="124" y="648" type="line"/>
      <point x="39" y="648" type="line"/>
      <point x="39" y="0" type="line"/>
      <point x="95" y="0" type="line"/>
      <point x="95" y="581" type="line"/>
      <point x="342" y="77" type="line"/>
      <point x="402" y="77" type="line"/>
      <point x="649" y="584" type="line"/>
      <point x="649" y="0" type="line"/>
      <point x="705" y="0" type="line"/>
    </contour>
  </outline>
</glyph>
<glyph name="N" format="2">
  <advance width="1569"/>
  <unicode hex="004E"/>
  <outline>
    <contour>
      <point x="1050" y="648" type="line"/>
      <point x="994" y="648" type="line"/>
      <point x="994" y="97" type="line"/>
      <point x="569" y="648" type="line"/>
      <point x="519" y="648" type="line"/>
      <point x="519" y="0" type="line"/>
      <point x="575" y="0" type="line"/>
      <point x="575" y="550" type="line"/>
      <point x="1000" y="0" type="line"/>
      <point x="1050" y="0" type="line"/>
    </contour>
  </outline>
</glyph>
<glyph name="O" format="2">
  <advance width="1685"/>
  <unicode hex="004F"/>
  <outline>
    <contour>
      <point x="843" y="646" type="curve" smooth="yes"/>
      <point x="654" y="646"/>
      <point x="512" y="509"/>
      <point x="512" y="315" type="curve" smooth="yes"/>
      <point x="512" y="121"/>
      <point x="654" y="-16"/>
      <point x="843" y="-16" type="curve" smooth="yes"/>
      <point x="1033" y="-16"/>
      <point x="1175" y="121"/>
      <point x="1175" y="315" type="curve" smooth="yes"/>
      <point x="1175" y="509"/>
      <point x="1033" y="646"/>
    </contour>
    <contour>
      <point x="843" y="592" type="curve" smooth="yes"/>
      <point x="997" y="592"/>
      <point x="1116" y="481"/>
      <point x="1116" y="315" type="curve" smooth="yes"/>
      <point x="1116" y="151"/>
      <point x="997" y="39"/>
      <point x="843" y="39" type="curve" smooth="yes"/>
      <point x="690" y="39"/>
      <point x="570" y="151"/>
      <point x="570" y="315" type="curve" smooth="yes"/>
      <point x="570" y="481"/>
      <point x="690" y="592"/>
    </contour>
  </outline>
</glyph>
<glyph name="P" format="2">
  <advance width="1331"/>
  <unicode hex="0050"/>
  <outline>
    <contour>
      <point x="722" y="264" type="line" smooth="yes"/>
      <point x="865" y="264"/>
      <point x="951" y="335"/>
      <point x="951" y="456" type="curve" smooth="yes"/>
      <point x="951" y="577"/>
      <point x="865" y="648"/>
      <point x="722" y="648" type="curve" smooth="yes"/>
      <point x="482" y="648" type="line"/>
      <point x="482" y="0" type="line"/>
      <point x="538" y="0" type="line"/>
      <point x="538" y="264" type="line"/>
    </contour>
    <contour>
      <point x="721" y="595" type="line" smooth="yes"/>
      <point x="829" y="595"/>
      <point x="893" y="548"/>
      <point x="893" y="456" type="curve" smooth="yes"/>
      <point x="893" y="364"/>
      <point x="829" y="317"/>
      <point x="721" y="317" type="curve" smooth="yes"/>
      <point x="538" y="317" type="line"/>
      <point x="538" y="595" type="line"/>
    </contour>
  </outline>
</glyph>
<glyph name="Q" format="2">
  <advance width="746"/>
  <unicode hex="0051"/>
  <outline>
    <contour>
      <point x="383" y="650" type="curve" smooth="yes"/>
      <point x="194" y="650"/>
      <point x="52" y="513"/>
      <point x="52" y="319" type="curve" smooth="yes"/>
      <point x="52" y="125"/>
      <point x="194" y="-12"/>
      <point x="383" y="-12" type="curve" smooth="yes"/>
      <point x="573" y="-12"/>
      <point x="715" y="125"/>
      <point x="715" y="319" type="curve" smooth="yes"/>
      <point x="715" y="513"/>
      <point x="573" y="650"/>
    </contour>
    <contour>
      <point x="383" y="596" type="curve" smooth="yes"/>
      <point x="537" y="596"/>
      <point x="656" y="485"/>
      <point x="656" y="319" type="curve" smooth="yes"/>
      <point x="656" y="155"/>
      <point x="537" y="43"/>
      <point x="383" y="43" type="curve" smooth="yes"/>
      <point x="230" y="43"/>
      <point x="110" y="155"/>
      <point x="110" y="319" type="curve" smooth="yes"/>
      <point x="110" y="485"/>
      <point x="230" y="596"/>
    </contour>
    <contour>
      <point x="355" y="-38" type="move"/>
      <point x="355" y="-39" type="line" smooth="yes"/>
      <point x="355" y="-87"/>
      <point x="409" y="-136"/>
      <point x="454" y="-136" type="curve" smooth="yes"/>
      <point x="467" y="-136" type="line"/>
      <point x="467" y="-85" type="line"/>
      <point x="463" y="-85" type="line" smooth="yes"/>
      <point x="433" y="-85"/>
      <point x="414" y="-65"/>
      <point x="414" y="-38" type="curve"/>
    </contour>
    <contour>
      <point x="467" y="-136" type="line"/>
      <point x="545" y="-136" type="line"/>
      <point x="545" y="-85" type="line"/>
      <point x="467" y="-85" type="line"/>
    </contour>
    <contour>
      <point x="355" y="-38" type="line"/>
      <point x="414" y="-38" type="line"/>
      <point x="414" y="-7" type="line"/>
      <point x="355" y="-7" type="line"/>
    </contour>
  </outline>
</glyph>
<glyph name="R" format="2">
  <advance width="523"/>
  <unicode hex="0052"/>
  <outline>
    <contour>
      <point x="50" y="648" type="line"/>
      <point x="50" y="0" type="line"/>
      <point x="106" y="0" type="line"/>
      <point x="106" y="288" type="line"/>
      <point x="205" y="288" type="line"/>
      <point x="447" y="0" type="line"/>
      <point x="517" y="0" type="line"/>
      <point x="272" y="288" type="line"/>
      <point x="297" y="288" type="line" smooth="yes"/>
      <point x="435" y="288"/>
      <point x="520" y="356"/>
      <point x="520" y="468" type="curve" smooth="yes"/>
      <point x="520" y="583"/>
      <point x="439" y="648"/>
      <point x="297" y="648" type="curve" smooth="yes"/>
    </contour>
    <contour>
      <point x="296" y="595" type="line" smooth="yes"/>
      <point x="402" y="595"/>
      <point x="462" y="550"/>
      <point x="462" y="468" type="curve" smooth="yes"/>
      <point x="462" y="385"/>
      <point x="403" y="339"/>
      <point x="296" y="339" type="curve" smooth="yes"/>
      <point x="106" y="339" type="line"/>
      <point x="106" y="595" type="line"/>
    </contour>
  </outline>
</glyph>
<glyph name="S" format="2">
  <advance width="563"/>
  <unicode hex="0053"/>
  <outline>
    <contour>
      <point x="250" y="351" type="line"/>
      <point x="250" y="301" type="line"/>
      <point x="323" y="301" type="line" smooth="yes"/>
      <point x="408" y="301"/>
      <point x="444" y="246"/>
      <point x="444" y="176" type="curve" smooth="yes"/>
      <point x="444" y="105"/>
      <point x="361" y="51"/>
      <point x="323" y="51" type="curve" smooth="yes"/>
      <point x="62" y="51" type="line"/>
      <point x="62" y="0" type="line"/>
      <point x="326" y="0" type="line" smooth="yes"/>
      <point x="413" y="0"/>
      <point x="499" y="76"/>
      <point x="499" y="176" type="curve" smooth="yes"/>
      <point x="499" y="276"/>
      <point x="437" y="351"/>
      <point x="326" y="351" type="curve" smooth="yes"/>
    </contour>
    <contour>
      <point x="336" y="302" type="line"/>
      <point x="336" y="352" type="line"/>
      <point x="239" y="352" type="line" smooth="yes"/>
      <point x="154" y="352"/>
      <point x="118" y="409"/>
      <point x="118" y="478" type="curve" smooth="yes"/>
      <point x="118" y="549"/>
      <point x="154" y="603"/>
      <point x="239" y="603" type="curve" smooth="yes"/>
      <point x="470" y="603" type="line"/>
      <point x="470" y="653" type="line"/>
      <point x="236" y="653" type="line" smooth="yes"/>
      <point x="125" y="653"/>
      <point x="63" y="578"/>
      <point x="63" y="478" type="curve" smooth="yes"/>
      <point x="63" y="378"/>
      <point x="125" y="302"/>
      <point x="236" y="302" type="curve" smooth="yes"/>
    </contour>
  </outline>
</glyph>
<glyph name="T" format="2">
  <advance width="1215"/>
  <unicode hex="0054"/>
  <outline>
    <contour>
      <point x="870" y="648" type="line"/>
      <point x="346" y="648" type="line"/>
      <point x="346" y="594" type="line"/>
      <point x="579" y="594" type="line"/>
      <point x="579" y="0" type="line"/>
      <point x="636" y="0" type="line"/>
      <point x="636" y="594" type="line"/>
      <point x="870" y="594" type="line"/>
    </contour>
  </outline>
</glyph>
<glyph name="U" format="2">
  <advance width="1510"/>
  <unicode hex="0055"/>
  <outline>
    <contour>
      <point x="1017" y="640" type="line"/>
      <point x="959" y="640" type="line"/>
      <point x="959" y="249" type="line" smooth="yes"/>
      <point x="959" y="106"/>
      <point x="871" y="40"/>
      <point x="754" y="40" type="curve" smooth="yes"/>
      <point x="637" y="40"/>
      <point x="549" y="106"/>
      <point x="549" y="249" type="curve" smooth="yes"/>
      <point x="549" y="640" type="line"/>
      <point x="492" y="640" type="line"/>
      <point x="492" y="244" type="line" smooth="yes"/>
      <point x="492" y="71"/>
      <point x="609" y="-15"/>
      <point x="754" y="-15" type="curve" smooth="yes"/>
      <point x="899" y="-15"/>
      <point x="1017" y="71"/>
      <point x="1017" y="244" type="curve" smooth="yes"/>
    </contour>
  </outline>
</glyph>
<glyph name="V" format="2">
  <advance width="644"/>
  <unicode hex="0056"/>
  <outline>
    <contour>
      <point x="624" y="648" type="line"/>
      <point x="566" y="648" type="line"/>
      <point x="323" y="56" type="line"/>
      <point x="81" y="648" type="line"/>
      <point x="20" y="648" type="line"/>
      <point x="288" y="0" type="line"/>
      <point x="357" y="0" type="line"/>
    </contour>
  </outline>
</glyph>
<glyph name="W" format="2">
  <advance width="2208"/>
  <unicode hex="0057"/>
  <outline>
    <contour>
      <point x="1585" y="648" type="line"/>
      <point x="1527" y="648" type="line"/>
      <point x="1332" y="64" type="line"/>
      <point x="1136" y="648" type="line"/>
      <point x="1073" y="648" type="line"/>
      <point x="876" y="63" type="line"/>
      <point x="683" y="648" type="line"/>
      <point x="623" y="648" type="line"/>
      <point x="841" y="0" type="line"/>
      <point x="911" y="0" type="line"/>
      <point x="1104" y="574" type="line"/>
      <point x="1298" y="0" type="line"/>
      <point x="1367" y="0" type="line"/>
    </contour>
  </outline>
</glyph>
<glyph name="X" format="2">
  <advance width="1373"/>
  <unicode hex="0058"/>
  <outline>
    <contour>
      <point x="961" y="648" type="line"/>
      <point x="893" y="648" type="line"/>
      <point x="687" y="375" type="line"/>
      <point x="482" y="648" type="line"/>
      <point x="413" y="648" type="line"/>
      <point x="651" y="331" type="line"/>
      <point x="401" y="0" type="line"/>
      <point x="468" y="0" type="line"/>
      <point x="686" y="289" type="line"/>
      <point x="903" y="0" type="line"/>
      <point x="972" y="0" type="line"/>
      <point x="721" y="331" type="line"/>
    </contour>
  </outline>
</glyph>
<glyph name="Y" format="2">
  <advance width="616"/>
  <unicode hex="0059"/>
  <outline>
    <contour>
      <point x="595" y="648" type="line"/>
      <point x="528" y="648" type="line"/>
      <point x="309" y="331" type="line"/>
      <point x="89" y="648" type="line"/>
      <point x="21" y="648" type="line"/>
      <point x="280" y="278" type="line"/>
      <point x="280" y="0" type="line"/>
      <point x="337" y="0" type="line"/>
      <point x="337" y="278" type="line"/>
    </contour>
  </outline>
</glyph>
<glyph name="Z" format="2">
  <advance width="588"/>
  <unicode hex="005A"/>
  <outline>
    <contour>
      <point x="541" y="648" type="line"/>
      <point x="53" y="648" type="line"/>
      <point x="53" y="594" type="line"/>
      <point x="466" y="594" type="line"/>
      <point x="45" y="44" type="line"/>
      <point x="45" y="0" type="line"/>
      <point x="543" y="0" type="line"/>
      <point x="543" y="54" type="line"/>
      <point x="120" y="54" type="line"/>
      <point x="541" y="604" type="line"/>
    </contour>
  </outline>
</glyph>
<glyph name="a" format="2">
  <advance width="554"/>
  <unicode hex="0061"/>
  <outline>
    <contour>
      <point x="494" y="463" type="line"/>
      <point x="438" y="463" type="line"/>
      <point x="438" y="373" type="line"/>
      <point x="400" y="431"/>
      <point x="337" y="471"/>
      <point x="251" y="471" type="curve" smooth="yes"/>
      <point x="119" y="471"/>
      <point x="16" y="368"/>
      <point x="16" y="228" type="curve" smooth="yes"/>
      <point x="16" y="88"/>
      <point x="119" y="-15"/>
      <point x="251" y="-15" type="curve" smooth="yes"/>
      <point x="337" y="-15"/>
      <point x="400" y="24"/>
      <point x="438" y="83" type="curve"/>
      <point x="494" y="83" type="line"/>
    </contour>
    <contour>
      <point x="258" y="417" type="curve" smooth="yes"/>
      <point x="364" y="417"/>
      <point x="441" y="336"/>
      <point x="441" y="228" type="curve" smooth="yes"/>
      <point x="441" y="120"/>
      <point x="364" y="39"/>
      <point x="258" y="39" type="curve" smooth="yes"/>
      <point x="151" y="39"/>
      <point x="74" y="122"/>
      <point x="74" y="228" type="curve" smooth="yes"/>
      <point x="74" y="334"/>
      <point x="150" y="417"/>
    </contour>
    <contour>
      <point x="435" y="96" type="move"/>
      <point x="435" y="95" type="line" smooth="yes"/>
      <point x="435" y="47"/>
      <point x="489" y="-2"/>
      <point x="534" y="-2" type="curve" smooth="yes"/>
      <point x="547" y="-2" type="line"/>
      <point x="547" y="49" type="line"/>
      <point x="543" y="49" type="line" smooth="yes"/>
      <point x="513" y="49"/>
      <point x="494" y="70"/>
      <point x="494" y="97" type="curve"/>
    </contour>
  </outline>
</glyph>
<glyph name="b" format="2">
  <advance width="596"/>
  <unicode hex="0062"/>
  <outline>
    <contour>
      <point x="311" y="471" type="curve" smooth="yes"/>
      <point x="226" y="471"/>
      <point x="163" y="432"/>
      <point x="125" y="374" type="curve"/>
      <point x="125" y="713" type="line"/>
      <point x="68" y="713" type="line"/>
      <point x="68" y="82" type="line"/>
      <point x="125" y="82" type="line"/>
      <point x="163" y="24"/>
      <point x="226" y="-15"/>
      <point x="311" y="-15" type="curve" smooth="yes"/>
      <point x="443" y="-15"/>
      <point x="546" y="88"/>
      <point x="546" y="228" type="curve" smooth="yes"/>
      <point x="546" y="368"/>
      <point x="443" y="471"/>
    </contour>
    <contour>
      <point x="304" y="417" type="curve" smooth="yes"/>
      <point x="412" y="417"/>
      <point x="488" y="334"/>
      <point x="488" y="228" type="curve" smooth="yes"/>
      <point x="488" y="122"/>
      <point x="413" y="39"/>
      <point x="304" y="39" type="curve" smooth="yes"/>
      <point x="198" y="39"/>
      <point x="121" y="120"/>
      <point x="121" y="228" type="curve" smooth="yes"/>
      <point x="121" y="336"/>
      <point x="198" y="417"/>
    </contour>
    <contour>
      <point x="127" y="87" type="line"/>
      <point x="68" y="87" type="line"/>
      <point x="68" y="60"/>
      <point x="49" y="39"/>
      <point x="19" y="39" type="curve" smooth="yes"/>
      <point x="15" y="39" type="line"/>
      <point x="15" y="-12" type="line"/>
      <point x="28" y="-12" type="line" smooth="yes"/>
      <point x="73" y="-12"/>
      <point x="127" y="38"/>
      <point x="127" y="86" type="curve" smooth="yes"/>
    </contour>
  </outline>
</glyph>
<glyph name="c" format="2">
  <advance width="1023"/>
  <unicode hex="0063"/>
  <outline>
    <contour>
      <point x="556" y="471" type="curve" smooth="yes"/>
      <point x="414" y="471"/>
      <point x="315" y="366"/>
      <point x="315" y="228" type="curve" smooth="yes"/>
      <point x="315" y="89"/>
      <point x="414" y="-15"/>
      <point x="556" y="-15" type="curve" smooth="yes"/>
      <point x="625" y="-15"/>
      <point x="687" y="11"/>
      <point x="729" y="58" type="curve"/>
      <point x="694" y="97" type="line"/>
      <point x="658" y="62"/>
      <point x="610" y="39"/>
      <point x="554" y="39" type="curve" smooth="yes"/>
      <point x="451" y="39"/>
      <point x="373" y="118"/>
      <point x="373" y="228" type="curve" smooth="yes"/>
      <point x="373" y="337"/>
      <point x="451" y="417"/>
      <point x="554" y="417" type="curve" smooth="yes"/>
      <point x="610" y="417"/>
      <point x="656" y="396"/>
      <point x="692" y="359" type="curve"/>
      <point x="729" y="398" type="line"/>
      <point x="687" y="445"/>
      <point x="625" y="471"/>
    </contour>
  </outline>
</glyph>
<glyph name="d" format="2">
  <advance width="612"/>
  <unicode hex="0064"/>
  <outline>
    <contour>
      <point x="273" y="471" type="curve" smooth="yes"/>
      <point x="141" y="471"/>
      <point x="38" y="368"/>
      <point x="38" y="228" type="curve" smooth="yes"/>
      <point x="38" y="88"/>
      <point x="141" y="-15"/>
      <point x="273" y="-15" type="curve" smooth="yes"/>
      <point x="358" y="-15"/>
      <point x="421" y="24"/>
      <point x="459" y="82" type="curve"/>
      <point x="516" y="82" type="line"/>
      <point x="516" y="713" type="line"/>
      <point x="459" y="713" type="line"/>
      <point x="459" y="374" type="line"/>
      <point x="421" y="432"/>
      <point x="358" y="471"/>
    </contour>
    <contour>
      <point x="280" y="417" type="curve" smooth="yes"/>
      <point x="386" y="417"/>
      <point x="463" y="336"/>
      <point x="463" y="228" type="curve" smooth="yes"/>
      <point x="463" y="120"/>
      <point x="386" y="39"/>
      <point x="280" y="39" type="curve" smooth="yes"/>
      <point x="171" y="39"/>
      <point x="96" y="122"/>
      <point x="96" y="228" type="curve" smooth="yes"/>
      <point x="96" y="334"/>
      <point x="172" y="417"/>
    </contour>
    <contour>
      <point x="457" y="87" type="move"/>
      <point x="457" y="86" type="line" smooth="yes"/>
      <point x="457" y="38"/>
      <point x="511" y="-12"/>
      <point x="556" y="-12" type="curve" smooth="yes"/>
      <point x="569" y="-12" type="line"/>
      <point x="569" y="39" type="line"/>
      <point x="565" y="39" type="line" smooth="yes"/>
      <point x="535" y="39"/>
      <point x="516" y="60"/>
      <point x="516" y="87" type="curve"/>
    </contour>
  </outline>
</glyph>
<glyph name="e" format="2">
  <advance width="541"/>
  <unicode hex="0065"/>
  <outline>
    <contour>
      <point x="277" y="471" type="curve" smooth="yes"/>
      <point x="144" y="471"/>
      <point x="44" y="370"/>
      <point x="44" y="228" type="curve" smooth="yes"/>
      <point x="44" y="84"/>
      <point x="143" y="-15"/>
      <point x="280" y="-15" type="curve" smooth="yes"/>
      <point x="348" y="-15"/>
      <point x="414" y="2"/>
      <point x="473" y="63" type="curve"/>
      <point x="443" y="102" type="line"/>
      <point x="401" y="61"/>
      <point x="349" y="35"/>
      <point x="284" y="35" type="curve" smooth="yes"/>
      <point x="187" y="35"/>
      <point x="110" y="98"/>
      <point x="102" y="207" type="curve"/>
      <point x="496" y="207" type="line"/>
      <point x="497" y="214"/>
      <point x="497" y="222"/>
      <point x="497" y="231" type="curve" smooth="yes"/>
      <point x="496" y="371"/>
      <point x="402" y="471"/>
    </contour>
    <contour>
      <point x="276" y="420" type="curve" smooth="yes"/>
      <point x="364" y="420"/>
      <point x="431" y="354"/>
      <point x="439" y="256" type="curve"/>
      <point x="103" y="256" type="line"/>
      <point x="114" y="352"/>
      <point x="180" y="420"/>
    </contour>
  </outline>
</glyph>
<glyph name="f" format="2">
  <advance width="350"/>
  <unicode hex="0066"/>
  <outline>
    <contour>
      <point x="341" y="471" type="line"/>
      <point x="209" y="471" type="line"/>
      <point x="209" y="552" type="line" smooth="yes"/>
      <point x="209" y="629"/>
      <point x="238" y="674"/>
      <point x="311" y="674" type="curve"/>
      <point x="334" y="674" type="line"/>
      <point x="334" y="728" type="line"/>
      <point x="307" y="728" type="line"/>
      <point x="195" y="728"/>
      <point x="152" y="655"/>
      <point x="152" y="552" type="curve" smooth="yes"/>
      <point x="152" y="471" type="line"/>
      <point x="36" y="471" type="line"/>
      <point x="36" y="419" type="line"/>
      <point x="152" y="419" type="line"/>
      <point x="152" y="0" type="line"/>
      <point x="209" y="0" type="line"/>
      <point x="209" y="419" type="line"/>
      <point x="341" y="419" type="line"/>
    </contour>
  </outline>
</glyph>
<glyph name="g" format="2">
  <advance width="594"/>
  <unicode hex="0067"/>
  <outline>
    <contour>
      <point x="278" y="432" type="curve" smooth="yes"/>
      <point x="145" y="432"/>
      <point x="44" y="333"/>
      <point x="44" y="192" type="curve" smooth="yes"/>
      <point x="44" y="51"/>
      <point x="145" y="-48"/>
      <point x="278" y="-48" type="curve" smooth="yes"/>
      <point x="362" y="-48"/>
      <point x="425" y="-9"/>
      <point x="461" y="51" type="curve"/>
      <point x="461" y="-16" type="line" smooth="yes"/>
      <point x="461" y="-139"/>
      <point x="377" y="-200"/>
      <point x="271" y="-200" type="curve"/>
      <point x="82" y="-200" type="line"/>
      <point x="82" y="-252" type="line"/>
      <point x="271" y="-252" type="line"/>
      <point x="410" y="-252"/>
      <point x="518" y="-170"/>
      <point x="518" y="-14" type="curve" smooth="yes"/>
      <point x="518" y="317" type="line"/>
      <point x="461" y="317" type="line"/>
      <point x="461" y="333" type="line"/>
      <point x="425" y="393"/>
      <point x="362" y="432"/>
    </contour>
    <contour>
      <point x="284" y="379" type="curve" smooth="yes"/>
      <point x="389" y="379"/>
      <point x="466" y="298"/>
      <point x="466" y="192" type="curve" smooth="yes"/>
      <point x="466" y="86"/>
      <point x="389" y="5"/>
      <point x="284" y="5" type="curve" smooth="yes"/>
      <point x="177" y="5"/>
      <point x="102" y="87"/>
      <point x="102" y="192" type="curve" smooth="yes"/>
      <point x="102" y="296"/>
      <point x="177" y="379"/>
    </contour>
    <contour>
      <point x="518" y="331" type="move"/>
      <point x="462" y="331" type="line"/>
    </contour>
    <contour>
      <point x="518" y="317" type="move"/>
      <point x="518" y="344"/>
      <point x="537" y="365"/>
      <point x="567" y="365" type="curve" smooth="yes"/>
      <point x="571" y="365" type="line"/>
      <point x="571" y="416" type="line"/>
      <point x="558" y="416" type="line" smooth="yes"/>
      <point x="513" y="416"/>
      <point x="459" y="367"/>
      <point x="459" y="319" type="curve" smooth="yes"/>
      <point x="459" y="317" type="line"/>
    </contour>
  </outline>
</glyph>
<glyph name="h" format="2">
  <advance width="584"/>
  <unicode hex="0068"/>
  <outline>
    <contour>
      <point x="992" y="-227"/>
    </contour>
    <contour>
      <point x="520" y="0" type="line"/>
      <point x="520" y="208" type="line"/>
      <point x="520" y="338"/>
      <point x="423" y="426"/>
      <point x="297" y="426" type="curve" smooth="yes"/>
      <point x="200" y="426"/>
      <point x="114" y="356"/>
      <point x="84" y="271" type="curve"/>
      <point x="84" y="728" type="line"/>
      <point x="72" y="728" type="line"/>
      <point x="72" y="0" type="line"/>
      <point x="86" y="0" type="line"/>
      <point x="87" y="-4"/>
      <point x="86.0" y="193.83772"/>
      <point x="86" y="209" type="curve"/>
      <point x="86" y="312"/>
      <point x="184" y="415"/>
      <point x="297" y="415" type="curve"/>
      <point x="417" y="415"/>
      <point x="508" y="331"/>
      <point x="508" y="209" type="curve"/>
      <point x="508" y="0" type="line"/>
    </contour>
  </outline>
</glyph>
<glyph name="i" format="2">
  <advance width="152"/>
  <unicode hex="0069"/>
  <outline>
    <contour>
      <point x="104" y="471" type="line"/>
      <point x="47" y="471" type="line"/>
      <point x="47" y="0" type="line"/>
      <point x="104" y="0" type="line"/>
    </contour>
    <contour>
      <point x="76" y="681" type="curve" smooth="yes"/>
      <point x="53" y="681"/>
      <point x="35" y="663"/>
      <point x="35" y="640" type="curve" smooth="yes"/>
      <point x="35" y="617"/>
      <point x="53" y="599"/>
      <point x="76" y="599" type="curve" smooth="yes"/>
      <point x="99" y="599"/>
      <point x="117" y="617"/>
      <point x="117" y="640" type="curve" smooth="yes"/>
      <point x="117" y="663"/>
      <point x="99" y="681"/>
    </contour>
  </outline>
</glyph>
<glyph name="j" format="2">
  <advance width="255"/>
  <unicode hex="006A"/>
  <outline>
    <contour>
      <point x="150" y="425" type="line"/>
      <point x="93" y="425" type="line"/>
      <point x="93" y="-132" type="line" smooth="yes"/>
      <point x="93" y="-177"/>
      <point x="74" y="-198"/>
      <point x="41" y="-198" type="curve"/>
      <point x="15" y="-198" type="line"/>
      <point x="15" y="-252" type="line"/>
      <point x="45" y="-252" type="line"/>
      <point x="111" y="-252"/>
      <point x="150" y="-211"/>
      <point x="150" y="-135" type="curve" smooth="yes"/>
    </contour>
    <contour>
      <point x="121" y="635" type="curve" smooth="yes"/>
      <point x="98" y="635"/>
      <point x="81" y="617"/>
      <point x="81" y="594" type="curve" smooth="yes"/>
      <point x="81" y="571"/>
      <point x="98" y="553"/>
      <point x="121" y="553" type="curve" smooth="yes"/>
      <point x="144" y="553"/>
      <point x="162" y="571"/>
      <point x="162" y="594" type="curve" smooth="yes"/>
      <point x="162" y="617"/>
      <point x="144" y="635"/>
    </contour>
  </outline>
</glyph>
<glyph name="k" format="2">
  <advance width="1042"/>
  <unicode hex="006B"/>
  <outline>
    <contour>
      <point x="443" y="720" type="line"/>
      <point x="386" y="720" type="line"/>
      <point x="386" y="0" type="line"/>
      <point x="443" y="0" type="line"/>
      <point x="443" y="221" type="line"/>
      <point x="520" y="221" type="line"/>
      <point x="721" y="0" type="line"/>
      <point x="794" y="0" type="line"/>
      <point x="566" y="249" type="line"/>
      <point x="790" y="471" type="line"/>
      <point x="718" y="471" type="line"/>
      <point x="520" y="272" type="line"/>
      <point x="443" y="272" type="line"/>
    </contour>
  </outline>
</glyph>
<glyph name="l" format="2">
  <advance width="171"/>
  <unicode hex="006C"/>
  <outline>
    <contour>
      <point x="36" y="650" type="line"/>
      <point x="36" y="117" type="line" smooth="yes"/>
      <point x="36" y="41"/>
      <point x="75" y="0"/>
      <point x="141" y="0" type="curve"/>
      <point x="141" y="54" type="line"/>
      <point x="108" y="54"/>
      <point x="93" y="75"/>
      <point x="93" y="120" type="curve" smooth="yes"/>
      <point x="93" y="650" type="line"/>
    </contour>
  </outline>
</glyph>
<glyph name="m" format="2">
  <advance width="917"/>
  <unicode hex="006D"/>
  <outline>
    <contour>
      <point x="688" y="478" type="curve" smooth="yes"/>
      <point x="615" y="478"/>
      <point x="541" y="446"/>
      <point x="506" y="369" type="curve"/>
      <point x="478" y="438"/>
      <point x="411" y="478"/>
      <point x="323" y="478" type="curve" smooth="yes"/>
      <point x="258" y="478"/>
      <point x="192" y="451"/>
      <point x="155" y="388" type="curve"/>
      <point x="98" y="371" type="line"/>
      <point x="98" y="0" type="line"/>
      <point x="155" y="0" type="line"/>
      <point x="155" y="268" type="line" smooth="yes"/>
      <point x="155" y="361"/>
      <point x="224" y="424"/>
      <point x="313" y="424" type="curve" smooth="yes"/>
      <point x="409" y="424"/>
      <point x="464" y="366"/>
      <point x="464" y="271" type="curve" smooth="yes"/>
      <point x="464" y="0" type="line"/>
      <point x="521" y="0" type="line"/>
      <point x="521" y="268" type="line" smooth="yes"/>
      <point x="521" y="361"/>
      <point x="590" y="424"/>
      <point x="678" y="424" type="curve" smooth="yes"/>
      <point x="774" y="424"/>
      <point x="830" y="366"/>
      <point x="830" y="271" type="curve" smooth="yes"/>
      <point x="830" y="0" type="line"/>
      <point x="887" y="0" type="line"/>
      <point x="887" y="289" type="line" smooth="yes"/>
      <point x="887" y="405"/>
      <point x="806" y="478"/>
    </contour>
    <contour>
      <point x="98" y="370" type="curve"/>
      <point x="98" y="371" type="line"/>
      <point x="154" y="371" type="line"/>
      <point x="157" y="371" type="line"/>
      <point x="157" y="372" type="line" smooth="yes"/>
      <point x="157" y="420"/>
      <point x="103" y="469"/>
      <point x="58" y="469" type="curve" smooth="yes"/>
      <point x="45" y="469" type="line"/>
      <point x="45" y="418" type="line"/>
      <point x="49" y="418" type="line" smooth="yes"/>
      <point x="79" y="418"/>
      <point x="98" y="397"/>
    </contour>
  </outline>
</glyph>
<glyph name="n" format="2">
  <advance width="576"/>
  <unicode hex="006E"/>
  <outline>
    <contour>
      <point x="64" y="0" type="line"/>
      <point x="76" y="0" type="line"/>
      <point x="76" y="208" type="line" smooth="yes"/>
      <point x="76" y="327"/>
      <point x="183" y="412"/>
      <point x="288" y="413" type="curve" smooth="yes"/>
      <point x="406" y="414"/>
      <point x="500" y="330"/>
      <point x="500" y="208" type="curve" smooth="yes"/>
      <point x="500" y="0" type="line"/>
      <point x="512" y="0" type="line"/>
      <point x="512" y="208" type="line" smooth="yes"/>
      <point x="512" y="338"/>
      <point x="420" y="426"/>
      <point x="290" y="426" type="curve" smooth="yes"/>
      <point x="176" y="426"/>
      <point x="64" y="338"/>
      <point x="64" y="208" type="curve" smooth="yes"/>
    </contour>
  </outline>
</glyph>
<glyph name="o" format="2">
  <advance width="1192"/>
  <unicode hex="006F"/>
  <outline>
    <contour>
      <point x="596" y="471" type="curve" smooth="yes"/>
      <point x="456" y="471"/>
      <point x="352" y="366"/>
      <point x="352" y="228" type="curve" smooth="yes"/>
      <point x="352" y="89"/>
      <point x="456" y="-15"/>
      <point x="596" y="-15" type="curve" smooth="yes"/>
      <point x="735" y="-15"/>
      <point x="841" y="89"/>
      <point x="841" y="228" type="curve" smooth="yes"/>
      <point x="841" y="366"/>
      <point x="735" y="471"/>
    </contour>
    <contour>
      <point x="596" y="417" type="curve" smooth="yes"/>
      <point x="702" y="417"/>
      <point x="782" y="337"/>
      <point x="782" y="228" type="curve" smooth="yes"/>
      <point x="782" y="118"/>
      <point x="702" y="39"/>
      <point x="596" y="39" type="curve" smooth="yes"/>
      <point x="490" y="39"/>
      <point x="410" y="118"/>
      <point x="410" y="228" type="curve" smooth="yes"/>
      <point x="410" y="337"/>
      <point x="490" y="417"/>
    </contour>
  </outline>
</glyph>
<glyph name="p" format="2">
  <advance width="556"/>
  <unicode hex="0070"/>
  <outline>
    <contour>
      <point x="289" y="-10" type="curve" smooth="yes"/>
      <point x="415" y="-10"/>
      <point x="512" y="78"/>
      <point x="512" y="208" type="curve" smooth="yes"/>
      <point x="512" y="318"/>
      <point x="409" y="426"/>
      <point x="289" y="426" type="curve" smooth="yes"/>
      <point x="162" y="426"/>
      <point x="65" y="338"/>
      <point x="65" y="208" type="curve"/>
      <point x="64" y="205" type="line"/>
      <point x="64" y="-284" type="line"/>
      <point x="76" y="-284" type="line"/>
      <point x="76" y="145" type="line"/>
      <point x="106" y="60"/>
      <point x="192" y="-10"/>
    </contour>
    <contour>
      <point x="289" y="1" type="curve"/>
      <point x="176" y="1"/>
      <point x="78" y="104"/>
      <point x="78" y="207" type="curve"/>
      <point x="78" y="331"/>
      <point x="169" y="415"/>
      <point x="289" y="415" type="curve"/>
      <point x="404" y="415"/>
      <point x="500" y="312"/>
      <point x="500" y="207" type="curve"/>
      <point x="500" y="85"/>
      <point x="409" y="1"/>
    </contour>
  </outline>
</glyph>
<glyph name="q" format="2">
  <advance width="612"/>
  <unicode hex="0071"/>
  <outline>
    <contour>
      <point x="273" y="-16" type="curve" smooth="yes"/>
      <point x="358" y="-16"/>
      <point x="421" y="23"/>
      <point x="459" y="81" type="curve"/>
      <point x="459" y="-258" type="line"/>
      <point x="516" y="-258" type="line"/>
      <point x="516" y="373" type="line"/>
      <point x="459" y="373" type="line"/>
      <point x="421" y="431"/>
      <point x="358" y="470"/>
      <point x="273" y="470" type="curve" smooth="yes"/>
      <point x="141" y="470"/>
      <point x="38" y="367"/>
      <point x="38" y="227" type="curve" smooth="yes"/>
      <point x="38" y="87"/>
      <point x="141" y="-16"/>
    </contour>
    <contour>
      <point x="280" y="38" type="curve" smooth="yes"/>
      <point x="172" y="38"/>
      <point x="96" y="121"/>
      <point x="96" y="227" type="curve" smooth="yes"/>
      <point x="96" y="333"/>
      <point x="171" y="416"/>
      <point x="280" y="416" type="curve" smooth="yes"/>
      <point x="386" y="416"/>
      <point x="463" y="335"/>
      <point x="463" y="227" type="curve" smooth="yes"/>
      <point x="463" y="119"/>
      <point x="386" y="38"/>
    </contour>
    <contour>
      <point x="516" y="368" type="move"/>
      <point x="516" y="395"/>
      <point x="535" y="416"/>
      <point x="565" y="416" type="curve" smooth="yes"/>
      <point x="569" y="416" type="line"/>
      <point x="569" y="467" type="line"/>
      <point x="556" y="467" type="line" smooth="yes"/>
      <point x="511" y="467"/>
      <point x="457" y="417"/>
      <point x="457" y="369" type="curve" smooth="yes"/>
      <point x="457" y="368" type="line"/>
    </contour>
  </outline>
</glyph>
<glyph name="r" format="2">
  <advance width="814"/>
  <unicode hex="0072"/>
  <outline>
    <contour>
      <point x="528" y="479" type="curve" smooth="yes"/>
      <point x="466" y="479"/>
      <point x="413" y="446"/>
      <point x="383" y="391" type="curve"/>
      <point x="383" y="471" type="line"/>
      <point x="327" y="471" type="line"/>
      <point x="327" y="0" type="line"/>
      <point x="383" y="0" type="line"/>
      <point x="383" y="266" type="line" smooth="yes"/>
      <point x="383" y="361"/>
      <point x="439" y="424"/>
      <point x="518" y="424" type="curve" smooth="yes"/>
      <point x="546" y="424"/>
      <point x="578" y="418"/>
      <point x="601" y="405" type="curve"/>
      <point x="616" y="461" type="line"/>
      <point x="590" y="473"/>
      <point x="561" y="479"/>
    </contour>
  </outline>
</glyph>
<glyph name="s" format="2">
  <advance width="448"/>
  <unicode hex="0073"/>
  <outline>
    <contour>
      <point x="208" y="270" type="line"/>
      <point x="208" y="216" type="line"/>
      <point x="261" y="216" type="line" smooth="yes"/>
      <point x="327" y="216"/>
      <point x="351" y="193"/>
      <point x="351" y="138" type="curve" smooth="yes"/>
      <point x="351" y="90"/>
      <point x="327" y="53"/>
      <point x="261" y="53" type="curve" smooth="yes"/>
      <point x="57" y="53" type="line"/>
      <point x="57" y="0" type="line"/>
      <point x="265" y="0" type="line" smooth="yes"/>
      <point x="357" y="0"/>
      <point x="404" y="65"/>
      <point x="404" y="138" type="curve" smooth="yes"/>
      <point x="404" y="218"/>
      <point x="357" y="270"/>
      <point x="265" y="270" type="curve" smooth="yes"/>
    </contour>
    <contour>
      <point x="208" y="216" type="line"/>
      <point x="208" y="270" type="line"/>
      <point x="177" y="270" type="line" smooth="yes"/>
      <point x="118" y="270"/>
      <point x="96" y="303"/>
      <point x="96" y="346" type="curve" smooth="yes"/>
      <point x="96" y="394"/>
      <point x="128" y="416"/>
      <point x="187" y="416" type="curve" smooth="yes"/>
      <point x="363" y="416" type="line"/>
      <point x="363" y="466" type="line"/>
      <point x="184" y="466" type="line" smooth="yes"/>
      <point x="100" y="466"/>
      <point x="47" y="419"/>
      <point x="47" y="346" type="curve" smooth="yes"/>
      <point x="47" y="281"/>
      <point x="90" y="216"/>
      <point x="174" y="216" type="curve" smooth="yes"/>
    </contour>
  </outline>
</glyph>
<glyph name="t" format="2">
  <advance width="904"/>
  <unicode hex="0074"/>
  <outline>
    <contour>
      <point x="638" y="463" type="line"/>
      <point x="421" y="463" type="line"/>
      <point x="421" y="617" type="line"/>
      <point x="364" y="617" type="line"/>
      <point x="364" y="463" type="line"/>
      <point x="256" y="463" type="line"/>
      <point x="256" y="411" type="line"/>
      <point x="364" y="411" type="line"/>
      <point x="364" y="154" type="line" smooth="yes"/>
      <point x="364" y="40"/>
      <point x="423" y="-15"/>
      <point x="521" y="-15" type="curve" smooth="yes"/>
      <point x="577" y="-15"/>
      <point x="624" y="4"/>
      <point x="657" y="32" type="curve"/>
      <point x="630" y="75" type="line"/>
      <point x="603" y="53"/>
      <point x="566" y="39"/>
      <point x="525" y="39" type="curve" smooth="yes"/>
      <point x="463" y="39"/>
      <point x="421" y="75"/>
      <point x="421" y="155" type="curve" smooth="yes"/>
      <point x="421" y="411" type="line"/>
      <point x="638" y="411" type="line"/>
    </contour>
  </outline>
</glyph>
<glyph name="u" format="2">
  <advance width="1186"/>
  <unicode hex="0075"/>
  <outline>
    <contour>
      <point x="804" y="463" type="line"/>
      <point x="747" y="463" type="line"/>
      <point x="747" y="192" type="line" smooth="yes"/>
      <point x="747" y="91"/>
      <point x="683" y="39"/>
      <point x="593" y="39" type="curve" smooth="yes"/>
      <point x="503" y="39"/>
      <point x="439" y="91"/>
      <point x="439" y="192" type="curve" smooth="yes"/>
      <point x="439" y="463" type="line"/>
      <point x="382" y="463" type="line"/>
      <point x="382" y="187" type="line" smooth="yes"/>
      <point x="382" y="54"/>
      <point x="477" y="-15"/>
      <point x="593" y="-15" type="curve" smooth="yes"/>
      <point x="709" y="-15"/>
      <point x="804" y="54"/>
      <point x="804" y="187" type="curve" smooth="yes"/>
    </contour>
  </outline>
</glyph>
<glyph name="v" format="2">
  <advance width="497"/>
  <unicode hex="0076"/>
  <outline>
    <contour>
      <point x="489" y="470" type="line"/>
      <point x="429" y="470" type="line"/>
      <point x="249" y="56" type="line"/>
      <point x="70" y="470" type="line"/>
      <point x="8" y="470" type="line"/>
      <point x="216" y="-2" type="line"/>
      <point x="281" y="-2" type="line"/>
    </contour>
  </outline>
</glyph>
<glyph name="w" format="2">
  <advance width="827"/>
  <unicode hex="0077"/>
  <outline>
    <contour>
      <point x="446" y="471" type="line"/>
      <point x="382" y="471" type="line"/>
      <point x="227" y="59" type="line"/>
      <point x="68" y="471" type="line"/>
      <point x="8" y="471" type="line"/>
      <point x="192" y="0" type="line"/>
      <point x="259" y="0" type="line"/>
      <point x="413" y="411" type="line"/>
      <point x="568" y="0" type="line"/>
      <point x="635" y="0" type="line"/>
      <point x="819" y="471" type="line"/>
      <point x="760" y="471" type="line"/>
      <point x="601" y="58" type="line"/>
    </contour>
  </outline>
</glyph>
<glyph name="x" format="2">
  <advance width="515"/>
  <unicode hex="0078"/>
  <outline>
    <contour>
      <point x="484" y="471" type="line"/>
      <point x="417" y="471" type="line"/>
      <point x="258" y="280" type="line"/>
      <point x="100" y="471" type="line"/>
      <point x="30" y="471" type="line"/>
      <point x="220" y="241" type="line"/>
      <point x="24" y="0" type="line"/>
      <point x="91" y="0" type="line"/>
      <point x="255" y="199" type="line"/>
      <point x="421" y="0" type="line"/>
      <point x="491" y="0" type="line"/>
      <point x="295" y="241" type="line"/>
    </contour>
  </outline>
</glyph>
<glyph name="y" format="2">
  <advance width="445"/>
  <unicode hex="0079"/>
  <outline>
    <contour>
      <point x="214" y="-48" type="line"/>
      <point x="298" y="-48"/>
      <point x="355" y="-6"/>
      <point x="391" y="54" type="curve"/>
      <point x="391" y="-16" type="line" smooth="yes"/>
      <point x="391" y="-139"/>
      <point x="307" y="-200"/>
      <point x="201" y="-200" type="curve"/>
      <point x="12" y="-200" type="line"/>
      <point x="12" y="-252" type="line"/>
      <point x="201" y="-252" type="line"/>
      <point x="340" y="-252"/>
      <point x="448" y="-170"/>
      <point x="448" y="-14" type="curve" smooth="yes"/>
      <point x="448" y="430" type="line"/>
      <point x="396" y="430" type="line"/>
      <point x="396" y="192" type="line"/>
      <point x="396" y="86"/>
      <point x="319" y="5"/>
      <point x="214" y="5" type="curve"/>
    </contour>
    <contour>
      <point x="214" y="5" type="line"/>
      <point x="124" y="5"/>
      <point x="58" y="58"/>
      <point x="58" y="159" type="curve" smooth="yes"/>
      <point x="58" y="430" type="line"/>
      <point x="1" y="430" type="line"/>
      <point x="1" y="154" type="line" smooth="yes"/>
      <point x="1" y="21"/>
      <point x="95" y="-48"/>
      <point x="214" y="-48" type="curve"/>
    </contour>
  </outline>
</glyph>
<glyph name="z" format="2">
  <advance width="502"/>
  <unicode hex="007A"/>
  <outline>
    <contour>
      <point x="38" y="0" type="line"/>
      <point x="464" y="0" type="line"/>
      <point x="464" y="94" type="line"/>
      <point x="182" y="94" type="line"/>
      <point x="454" y="326" type="line"/>
      <point x="454" y="416" type="line"/>
      <point x="44" y="416" type="line"/>
      <point x="44" y="322" type="line"/>
      <point x="310" y="322" type="line"/>
      <point x="38" y="92" type="line"/>
    </contour>
  </outline>
</glyph>
<glyph name="quotesinglbase" format="2">
  <advance width="270"/>
  <unicode hex="201A"/>
  <outline>
    <contour>
      <point x="74" y="-63"/>
      <point x="99" y="-34"/>
      <point x="99" y="-9" type="qcurve"/>
      <point x="99" y="108" type="line"/>
      <point x="215" y="108" type="line"/>
      <point x="215" y="-19" type="line"/>
      <point x="215" y="-81"/>
      <point x="142" y="-158"/>
      <point x="83" y="-158" type="qcurve"/>
      <point x="35" y="-158" type="line"/>
      <point x="35" y="-63" type="line"/>
      <point x="53" y="-63" type="line"/>
    </contour>
  </outline>
</glyph>
<glyph name="quotedblleft" format="2">
  <advance width="486"/>
  <unicode hex="201C"/>
  <outline>
    <contour>
      <point x="176" y="626"/>
      <point x="151" y="597"/>
      <point x="151" y="572" type="qcurve"/>
      <point x="151" y="455" type="line"/>
      <point x="35" y="455" type="line"/>
      <point x="35" y="582" type="line"/>
      <point x="35" y="644"/>
      <point x="109" y="721"/>
      <point x="168" y="721" type="qcurve"/>
      <point x="215" y="721" type="line"/>
      <point x="215" y="626" type="line"/>
      <point x="197" y="626" type="line"/>
    </contour>
    <contour>
      <point x="392" y="626"/>
      <point x="367" y="597"/>
      <point x="367" y="572" type="qcurve"/>
      <point x="367" y="455" type="line"/>
      <point x="251" y="455" type="line"/>
      <point x="251" y="582" type="line"/>
      <point x="251" y="644"/>
      <point x="324" y="721"/>
      <point x="383" y="721" type="qcurve"/>
      <point x="430" y="721" type="line"/>
      <point x="430" y="626" type="line"/>
      <point x="412" y="626" type="line"/>
    </contour>
  </outline>
</glyph>
<glyph name="p-bopomofo" format="2">
  <advance width="1000" height="1000"/>
  <unicode hex="3106"/>
  <note>
uni3106
</note>
  <outline>
    <contour>
      <point x="257" y="-22"/>
      <point x="454" y="98"/>
      <point x="523" y="158" type="qcurve"/>
      <point x="714" y="-16"/>
      <point x="745" y="-51" type="qcurve"/>
      <point x="825" y="4" type="line"/>
      <point x="810" y="22"/>
      <point x="607" y="212"/>
      <point x="593" y="223" type="qcurve"/>
      <point x="651" y="284"/>
      <point x="740" y="424"/>
      <point x="771" y="500" type="qcurve" smooth="yes"/>
      <point x="787" y="540"/>
      <point x="751" y="590"/>
      <point x="707" y="590" type="qcurve" smooth="yes"/>
      <point x="339" y="590" type="line" smooth="yes"/>
      <point x="323" y="590"/>
      <point x="310" y="608"/>
      <point x="315" y="624" type="qcurve"/>
      <point x="373" y="776" type="line"/>
      <point x="282" y="793" type="line"/>
      <point x="211" y="597" type="line" smooth="yes"/>
      <point x="197" y="558"/>
      <point x="234" y="508"/>
      <point x="276" y="508" type="qcurve" smooth="yes"/>
      <point x="635" y="508" type="line" smooth="yes"/>
      <point x="652" y="508"/>
      <point x="665" y="490"/>
      <point x="657" y="474" type="qcurve" smooth="yes"/>
      <point x="633" y="423"/>
      <point x="569" y="329"/>
      <point x="522" y="281" type="qcurve"/>
      <point x="490" y="308"/>
      <point x="294" y="469" type="qcurve"/>
      <point x="238" y="407" type="line"/>
      <point x="276" y="375"/>
      <point x="417" y="252"/>
      <point x="456" y="220" type="qcurve"/>
      <point x="391" y="163"/>
      <point x="220" y="54"/>
      <point x="123" y="21" type="qcurve"/>
      <point x="157" y="-60" type="line"/>
    </contour>
  </outline>
</glyph>
<glyph name="m-bopomofo" format="2">
  <advance width="1000" height="1000"/>
  <unicode hex="3107"/>
  <note>
uni3107
</note>
  <outline>
    <contour>
      <point x="889" y="584"/>
      <point x="883" y="616"/>
      <point x="865" y="639"/>
      <point x="831" y="652"/>
      <point x="804" y="652" type="qcurve" smooth="yes"/>
      <point x="193" y="652" type="line" smooth="yes"/>
      <point x="142" y="652"/>
      <point x="109" y="614"/>
      <point x="109" y="566" type="qcurve" smooth="yes"/>
      <point x="124" y="-43" type="line" smooth="yes"/>
      <point x="124" y="-59"/>
      <point x="144" y="-83"/>
      <point x="162" y="-83" type="qcurve" smooth="yes"/>
      <point x="201" y="-83"/>
      <point x="201" y="-39" type="qcurve" smooth="yes"/>
      <point x="185" y="561" type="line" smooth="yes"/>
      <point x="185" y="578"/>
      <point x="200" y="578" type="qcurve" smooth="yes"/>
      <point x="796" y="578" type="line" smooth="yes"/>
      <point x="813" y="578"/>
      <point x="813" y="561" type="qcurve" smooth="yes"/>
      <point x="790" y="-41" type="line" smooth="yes"/>
      <point x="789" y="-66"/>
      <point x="810" y="-84"/>
      <point x="828" y="-84" type="qcurve" smooth="yes"/>
      <point x="847" y="-84"/>
      <point x="864" y="-65"/>
      <point x="866" y="-43" type="qcurve" smooth="yes"/>
      <point x="889" y="565" type="line" smooth="yes"/>
    </contour>
  </outline>
</glyph>
<glyph name="n-bopomofo" format="2">
  <advance width="1000" height="1000"/>
  <unicode hex="310B"/>
  <note>
uni310B
</note>
  <outline>
    <contour>
      <point x="651" y="-24"/>
      <point x="698" y="-9"/>
      <point x="720" y="11" type="qcurve" smooth="yes"/>
      <point x="759" y="48"/>
      <point x="823" y="227"/>
      <point x="852" y="388" type="qcurve" smooth="yes"/>
      <point x="859" y="430"/>
      <point x="821" y="476"/>
      <point x="780" y="476" type="qcurve" smooth="yes"/>
      <point x="531" y="476" type="line" smooth="yes"/>
      <point x="485" y="476"/>
      <point x="627" y="695"/>
      <point x="598" y="752"/>
      <point x="549" y="752" type="qcurve" smooth="yes"/>
      <point x="156" y="752" type="line"/>
      <point x="156" y="669" type="line"/>
      <point x="459" y="669" type="line" smooth="yes"/>
      <point x="477" y="669"/>
      <point x="483" y="648"/>
      <point x="475" y="633" type="qcurve" smooth="yes"/>
      <point x="398" y="491" type="line" smooth="yes"/>
      <point x="347" y="397"/>
      <point x="453" y="395" type="qcurve" smooth="yes"/>
      <point x="731" y="395" type="line" smooth="yes"/>
      <point x="746" y="395"/>
      <point x="761" y="378"/>
      <point x="758" y="362" type="qcurve" smooth="yes"/>
      <point x="712" y="116"/>
      <point x="648" y="67" type="qcurve" smooth="yes"/>
      <point x="637" y="58"/>
      <point x="609" y="54"/>
      <point x="592" y="54" type="qcurve" smooth="yes"/>
      <point x="577" y="54"/>
      <point x="527" y="56"/>
      <point x="498" y="57" type="qcurve"/>
      <point x="493" y="-25" type="line"/>
      <point x="534" y="-27"/>
      <point x="597" y="-27"/>
      <point x="616" y="-26" type="qcurve" smooth="yes"/>
    </contour>
  </outline>
</glyph>
<glyph name="ch-bopomofo" format="2">
  <advance width="1000" height="1000"/>
  <unicode hex="3114"/>
  <note>
uni3114
</note>
  <outline>
    <contour>
      <point x="344" y="522"/>
      <point x="580" y="683"/>
      <point x="653" y="756" type="qcurve"/>
      <point x="583" y="806" type="line"/>
      <point x="522" y="744"/>
      <point x="301" y="593"/>
      <point x="200" y="547" type="qcurve"/>
      <point x="237" y="473" type="line"/>
    </contour>
    <contour>
      <point x="490" y="-15" type="line"/>
      <point x="577" y="-15" type="line"/>
      <point x="577" y="413" type="line"/>
      <point x="639" y="459"/>
      <point x="764" y="576"/>
      <point x="808" y="625" type="qcurve"/>
      <point x="737" y="676" type="line"/>
      <point x="672" y="600"/>
      <point x="482" y="443"/>
      <point x="291" y="331"/>
      <point x="193" y="290" type="qcurve"/>
      <point x="228" y="207" type="line"/>
      <point x="297" y="238"/>
      <point x="429" y="310"/>
      <point x="490" y="350" type="qcurve"/>
    </contour>
  </outline>
</glyph>
<glyph name="r-bopomofo" format="2">
  <advance width="1000" height="1000"/>
  <unicode hex="3116"/>
  <note>
uni3116
</note>
  <outline>
    <contour>
      <point x="746" y="6" type="line" smooth="yes"/>
      <point x="823" y="6"/>
      <point x="823" y="83" type="qcurve" smooth="yes"/>
      <point x="823" y="681" type="line" smooth="yes"/>
      <point x="823" y="759"/>
      <point x="745" y="759" type="qcurve" smooth="yes"/>
      <point x="234" y="759" type="line" smooth="yes"/>
      <point x="156" y="759"/>
      <point x="156" y="681" type="qcurve" smooth="yes"/>
      <point x="156" y="82" type="line" smooth="yes"/>
      <point x="156" y="44"/>
      <point x="198" y="5"/>
      <point x="235" y="6" type="qcurve" smooth="yes"/>
    </contour>
    <contour>
      <point x="245" y="93"/>
      <point x="245" y="122" type="qcurve" smooth="yes"/>
      <point x="245" y="643" type="line" smooth="yes"/>
      <point x="245" y="673"/>
      <point x="274" y="673" type="qcurve" smooth="yes"/>
      <point x="700" y="673" type="line" smooth="yes"/>
      <point x="729" y="673"/>
      <point x="729" y="643" type="qcurve" smooth="yes"/>
      <point x="729" y="120" type="line" smooth="yes"/>
      <point x="729" y="93"/>
      <point x="703" y="93" type="qcurve" smooth="yes"/>
      <point x="274" y="93" type="line" smooth="yes"/>
    </contour>
    <contour>
      <point x="503" y="269" type="qcurve"/>
      <point x="580" y="313" type="line"/>
      <point x="555" y="358"/>
      <point x="482" y="466"/>
      <point x="445" y="513" type="qcurve"/>
      <point x="377" y="468" type="line"/>
      <point x="410" y="421"/>
      <point x="478" y="312"/>
    </contour>
  </outline>
</glyph>
<glyph name="c-bopomofo" format="2">
  <advance width="1000"/>
  <unicode hex="3118"/>
  <outline>
    <contour>
      <point x="521" y="17" type="qcurve"/>
      <point x="596" y="-30" type="line"/>
      <point x="637" y="31"/>
      <point x="736" y="209"/>
      <point x="764" y="292" type="qcurve" smooth="yes"/>
      <point x="778" y="332"/>
      <point x="741" y="380"/>
      <point x="698" y="380" type="qcurve" smooth="yes"/>
      <point x="392" y="380" type="line" smooth="yes"/>
      <point x="375" y="380"/>
      <point x="363" y="398"/>
      <point x="370" y="414" type="qcurve" smooth="yes"/>
      <point x="387" y="449"/>
      <point x="419" y="521"/>
      <point x="435" y="559" type="qcurve"/>
      <point x="852" y="559" type="line"/>
      <point x="852" y="643" type="line"/>
      <point x="469" y="643" type="line"/>
      <point x="480" y="672"/>
      <point x="509" y="752"/>
      <point x="515" y="772" type="qcurve"/>
      <point x="430" y="800" type="line"/>
      <point x="420" y="766"/>
      <point x="386" y="675"/>
      <point x="374" y="643" type="qcurve"/>
      <point x="123" y="643" type="line"/>
      <point x="123" y="559" type="line"/>
      <point x="343" y="559" type="line"/>
      <point x="327" y="519"/>
      <point x="288" y="437"/>
      <point x="263" y="389" type="qcurve" smooth="yes"/>
      <point x="241" y="348"/>
      <point x="271" y="296"/>
      <point x="317" y="296" type="qcurve" smooth="yes"/>
      <point x="631" y="296" type="line" smooth="yes"/>
      <point x="647" y="296"/>
      <point x="660" y="278"/>
      <point x="654" y="262" type="qcurve" smooth="yes"/>
      <point x="633" y="204"/>
      <point x="550" y="66"/>
    </contour>
  </outline>
</glyph>
<glyph name="ei-bopomofo" format="2">
  <advance width="1000" height="1000"/>
  <unicode hex="311F"/>
  <note>
uni311F
</note>
  <outline>
    <contour>
      <point x="778" y="15" type="qcurve"/>
      <point x="838" y="98" type="line"/>
      <point x="751" y="162"/>
      <point x="591" y="340"/>
      <point x="482" y="543"/>
      <point x="441" y="672" type="qcurve" smooth="yes"/>
      <point x="427" y="716"/>
      <point x="361" y="735"/>
      <point x="324" y="711" type="qcurve" smooth="yes"/>
      <point x="286" y="686"/>
      <point x="155" y="613"/>
      <point x="108" y="593" type="qcurve"/>
      <point x="148" y="512" type="line"/>
      <point x="188" y="532"/>
      <point x="297" y="597"/>
      <point x="331" y="617" type="qcurve" smooth="yes"/>
      <point x="359" y="636"/>
      <point x="370" y="602" type="qcurve" smooth="yes"/>
      <point x="417" y="466"/>
      <point x="534" y="256"/>
      <point x="696" y="77"/>
    </contour>
  </outline>
</glyph>
<glyph name="an-bopomofo" format="2">
  <advance width="1000" height="1000"/>
  <unicode hex="3122"/>
  <note>
uni3122
</note>
  <outline>
    <contour>
      <point x="623" y="-10" type="qcurve"/>
      <point x="699" y="-46" type="line"/>
      <point x="734" y="16"/>
      <point x="825" y="223"/>
      <point x="847" y="306" type="qcurve" smooth="yes"/>
      <point x="858" y="346"/>
      <point x="819" y="392"/>
      <point x="778" y="392" type="qcurve" smooth="yes"/>
      <point x="645" y="392" type="line"/>
      <point x="666" y="455"/>
      <point x="707" y="593"/>
      <point x="723" y="657" type="qcurve" smooth="yes"/>
      <point x="734" y="698"/>
      <point x="696" y="743"/>
      <point x="655" y="743" type="qcurve" smooth="yes"/>
      <point x="151" y="743" type="line"/>
      <point x="151" y="663" type="line"/>
      <point x="601" y="663" type="line" smooth="yes"/>
      <point x="617" y="663"/>
      <point x="631" y="645"/>
      <point x="627" y="631" type="qcurve" smooth="yes"/>
      <point x="611" y="574"/>
      <point x="574" y="448"/>
      <point x="555" y="392" type="qcurve"/>
      <point x="317" y="392" type="line" smooth="yes"/>
      <point x="301" y="392"/>
      <point x="288" y="411"/>
      <point x="295" y="426" type="qcurve" smooth="yes"/>
      <point x="309" y="458"/>
      <point x="356" y="576"/>
      <point x="368" y="610" type="qcurve"/>
      <point x="282" y="633" type="line"/>
      <point x="262" y="581"/>
      <point x="210" y="449"/>
      <point x="190" y="405" type="qcurve" smooth="yes"/>
      <point x="173" y="364"/>
      <point x="201" y="312"/>
      <point x="246" y="312" type="qcurve" smooth="yes"/>
      <point x="722" y="312" type="line" smooth="yes"/>
      <point x="737" y="312"/>
      <point x="751" y="295"/>
      <point x="746" y="279" type="qcurve" smooth="yes"/>
      <point x="728" y="219"/>
      <point x="649" y="44"/>
    </contour>
  </outline>
</glyph>
<glyph name="ang-bopomofo" format="2">
  <advance width="1000" height="1000"/>
  <unicode hex="3124"/>
  <note>
uni3124
</note>
  <outline>
    <contour>
      <point x="276" y="54"/>
      <point x="434" y="243"/>
      <point x="470" y="365" type="qcurve" smooth="yes"/>
      <point x="472" y="372"/>
      <point x="476" y="385"/>
      <point x="477" y="390" type="qcurve"/>
      <point x="477" y="127" type="line" smooth="yes"/>
      <point x="477" y="74"/>
      <point x="501" y="13"/>
      <point x="561" y="-12"/>
      <point x="615" y="-12" type="qcurve" smooth="yes"/>
      <point x="691" y="-12"/>
      <point x="778" y="-11"/>
      <point x="844" y="-11"/>
      <point x="872" y="-11" type="qcurve"/>
      <point x="872" y="70" type="line"/>
      <point x="863" y="70"/>
      <point x="830" y="70"/>
      <point x="783" y="69"/>
      <point x="692" y="69"/>
      <point x="613" y="69" type="qcurve" smooth="yes"/>
      <point x="586" y="69"/>
      <point x="565" y="93"/>
      <point x="565" y="124" type="qcurve" smooth="yes"/>
      <point x="565" y="387" type="line" smooth="yes"/>
      <point x="565" y="415"/>
      <point x="547" y="443"/>
      <point x="520" y="443" type="qcurve" smooth="yes"/>
      <point x="497" y="443"/>
      <point x="487" y="428" type="qcurve"/>
      <point x="492" y="452"/>
      <point x="498" y="496"/>
      <point x="501" y="528" type="qcurve"/>
      <point x="864" y="528" type="line"/>
      <point x="864" y="610" type="line"/>
      <point x="506" y="610" type="line"/>
      <point x="506" y="778" type="line"/>
      <point x="421" y="778" type="line"/>
      <point x="421" y="610" type="line"/>
      <point x="106" y="610" type="line"/>
      <point x="106" y="528" type="line"/>
      <point x="416" y="528" type="line"/>
      <point x="410" y="468"/>
      <point x="377" y="344"/>
      <point x="310" y="223"/>
      <point x="198" y="110"/>
      <point x="112" y="60" type="qcurve"/>
      <point x="157" y="-16" type="line"/>
    </contour>
  </outline>
</glyph>
<glyph name="i-bopomofo" format="2">
  <advance width="1000" height="1000"/>
  <unicode hex="3127"/>
  <note>
uni3127
</note>
  <outline>
    <contour>
      <point x="866" y="333" type="line"/>
      <point x="866" y="420" type="line"/>
      <point x="134" y="420" type="line"/>
      <point x="134" y="333" type="line"/>
    </contour>
  </outline>
</glyph>
<glyph name="G.ss01" format="2">
  <advance width="801"/>
  <outline>
    <contour>
      <point x="390" y="653" type="curve" smooth="yes"/>
      <point x="200" y="653"/>
      <point x="55" y="515"/>
      <point x="55" y="320" type="curve" smooth="yes"/>
      <point x="55" y="111"/>
      <point x="213" y="-15"/>
      <point x="387" y="-15" type="curve" smooth="yes"/>
      <point x="581" y="-15"/>
      <point x="682" y="104"/>
      <point x="682" y="295" type="curve"/>
      <point x="692" y="318" type="line"/>
      <point x="407" y="318" type="line"/>
      <point x="407" y="265" type="line"/>
      <point x="629" y="265" type="line"/>
      <point x="620" y="115"/>
      <point x="537" y="40"/>
      <point x="387" y="40" type="curve" smooth="yes"/>
      <point x="235" y="40"/>
      <point x="114" y="152"/>
      <point x="114" y="320" type="curve" smooth="yes"/>
      <point x="114" y="485"/>
      <point x="235" y="598"/>
      <point x="390" y="598" type="curve" smooth="yes"/>
      <point x="475" y="598"/>
      <point x="551" y="561"/>
      <point x="601" y="501" type="curve"/>
      <point x="643" y="541" type="line"/>
      <point x="582" y="611"/>
      <point x="493" y="653"/>
    </contour>
    <contour>
      <point x="635" y="317" type="line"/>
      <point x="639" y="132" type="line"/>
      <point x="639" y="112" type="line" smooth="yes"/>
      <point x="639" y="56"/>
      <point x="688" y="-1"/>
      <point x="733" y="-1" type="curve" smooth="yes"/>
      <point x="746" y="-1" type="line"/>
      <point x="746" y="51" type="line"/>
      <point x="742" y="51" type="line" smooth="yes"/>
      <point x="712" y="51"/>
      <point x="692" y="72"/>
      <point x="692" y="99" type="curve" smooth="yes"/>
      <point x="692" y="317" type="line"/>
    </contour>
  </outline>
</glyph>
<glyph name="W.alt" format="2">
  <advance width="1017"/>
  <outline>
    <contour>
      <point x="741" y="187" type="line"/>
      <point x="880" y="709" type="line"/>
      <point x="1004" y="709" type="line"/>
      <point x="805" y="0" type="line"/>
      <point x="681" y="0" type="line"/>
      <point x="509" y="536" type="line"/>
      <point x="337" y="0" type="line"/>
      <point x="214" y="0" type="line"/>
      <point x="13" y="709" type="line"/>
      <point x="139" y="709" type="line"/>
      <point x="281" y="191" type="line"/>
      <point x="447" y="709" type="line"/>
      <point x="572" y="709" type="line"/>
    </contour>
  </outline>
</glyph>
<glyph name="b.ss01.copy_2" format="2">
  <advance width="564"/>
  <outline>
    <contour>
      <point x="26" y="0" type="line"/>
      <point x="344" y="0" type="line" smooth="yes"/>
      <point x="454" y="0"/>
      <point x="529" y="90"/>
      <point x="529" y="186" type="curve" smooth="yes"/>
      <point x="529" y="293"/>
      <point x="454" y="371"/>
      <point x="344" y="371" type="curve" smooth="yes"/>
      <point x="222" y="371" type="line" smooth="yes"/>
      <point x="166" y="371"/>
      <point x="128" y="408"/>
      <point x="128" y="463" type="curve" smooth="yes"/>
      <point x="128" y="519"/>
      <point x="166" y="555"/>
      <point x="222" y="555" type="curve" smooth="yes"/>
      <point x="474" y="555" type="line"/>
      <point x="474" y="649" type="line"/>
      <point x="201" y="649" type="line" smooth="yes"/>
      <point x="90" y="649"/>
      <point x="15" y="561"/>
      <point x="15" y="463" type="curve" smooth="yes"/>
      <point x="15" y="356"/>
      <point x="90" y="278"/>
      <point x="201" y="278" type="curve" smooth="yes"/>
      <point x="323" y="278" type="line" smooth="yes"/>
      <point x="378" y="278"/>
      <point x="416" y="241"/>
      <point x="416" y="186" type="curve" smooth="yes"/>
      <point x="416" y="130"/>
      <point x="378" y="92"/>
      <point x="323" y="92" type="curve" smooth="yes"/>
      <point x="26" y="92" type="line"/>
    </contour>
    <contour>
      <point x="1332" y="119" type="line"/>
      <point x="1332" y="177" type="line"/>
      <point x="941" y="177" type="line" smooth="yes"/>
      <point x="798" y="177"/>
      <point x="732" y="265"/>
      <point x="732" y="382" type="curve" smooth="yes"/>
      <point x="732" y="499"/>
      <point x="798" y="587"/>
      <point x="941" y="587" type="curve" smooth="yes"/>
      <point x="1332" y="587" type="line"/>
      <point x="1332" y="644" type="line"/>
      <point x="936" y="644" type="line" smooth="yes"/>
      <point x="763" y="644"/>
      <point x="677" y="527"/>
      <point x="677" y="382" type="curve" smooth="yes"/>
      <point x="677" y="237"/>
      <point x="763" y="119"/>
      <point x="936" y="119" type="curve" smooth="yes"/>
    </contour>
    <contour>
      <point x="-419" y="376" type="line"/>
      <point x="-419" y="319" type="line"/>
      <point x="-346" y="319" type="line" smooth="yes"/>
      <point x="-255" y="319"/>
      <point x="-213" y="263"/>
      <point x="-213" y="188" type="curve" smooth="yes"/>
      <point x="-213" y="111"/>
      <point x="-302" y="57"/>
      <point x="-346" y="57" type="curve" smooth="yes"/>
      <point x="-619" y="57" type="line"/>
      <point x="-619" y="0" type="line"/>
      <point x="-343" y="0" type="line" smooth="yes"/>
      <point x="-250" y="0"/>
      <point x="-158" y="82"/>
      <point x="-158" y="188" type="curve" smooth="yes"/>
      <point x="-158" y="294"/>
      <point x="-220" y="376"/>
      <point x="-343" y="376" type="curve" smooth="yes"/>
    </contour>
    <contour>
      <point x="-327" y="320" type="line"/>
      <point x="-327" y="377" type="line"/>
      <point x="-430" y="377" type="line" smooth="yes"/>
      <point x="-521" y="377"/>
      <point x="-563" y="433"/>
      <point x="-563" y="508" type="curve" smooth="yes"/>
      <point x="-563" y="585"/>
      <point x="-521" y="639"/>
      <point x="-430" y="639" type="curve" smooth="yes"/>
      <point x="-187" y="639" type="line"/>
      <point x="-187" y="696" type="line"/>
      <point x="-433" y="696" type="line" smooth="yes"/>
      <point x="-556" y="696"/>
      <point x="-618" y="614"/>
      <point x="-618" y="508" type="curve" smooth="yes"/>
      <point x="-618" y="402"/>
      <point x="-556" y="320"/>
      <point x="-433" y="320" type="curve" smooth="yes"/>
    </contour>
  </outline>
</glyph>
<glyph name="tail" format="2">
  <advance width="554"/>
  <outline>
    <contour>
      <point x="545" y="12" type="move"/>
      <point x="489" y="12" type="line"/>
    </contour>
    <contour>
      <point x="548" y="-1" type="move"/>
      <point x="548" y="0" type="line" smooth="yes"/>
      <point x="548" y="48"/>
      <point x="494" y="97"/>
      <point x="449" y="97" type="curve" smooth="yes"/>
      <point x="436" y="97" type="line"/>
      <point x="436" y="46" type="line"/>
      <point x="440" y="46" type="line" smooth="yes"/>
      <point x="470" y="46"/>
      <point x="489" y="25"/>
      <point x="489" y="-2" type="curve"/>
    </contour>
  </outline>
</glyph>
